<?xml version="1.0" encoding="UTF-8"?>
<svg width="48px" height="48px" viewBox="0 0 48 48" version="1.1" xmlns="http://www.w3.org/2000/svg" xmlns:xlink="http://www.w3.org/1999/xlink">
    <title>002-facebook-1</title>
    <g id="Page-1" stroke="none" stroke-width="1" fill="none" fill-rule="evenodd">
        <g id="share-2" transform="translate(-683.000000, -915.000000)" fill-rule="nonzero">
            <g id="Group-15" transform="translate(475.000000, 118.000000)">
                <g id="Group-3-Copy" transform="translate(208.000000, 796.000000)">
                    <g id="Group-9">
                        <g id="Group-24">
                            <g id="Group-23">
                                <g id="002-facebook-1" transform="translate(0.000000, 1.000000)">
                                    <path d="M48,24 C48,37.2550049 37.2550049,48 24,48 C10.7449951,48 0,37.2550049 0,24 C0,10.7449951 10.7449951,0 24,0 C37.2550049,0 48,10.7449951 48,24 Z" id="Path" fill="#4A7AFF"></path>
                                    <path d="M31.3370362,7.06054687 L31.3370362,12.4951172 C31.3370362,12.4951172 25.0975342,11.5894776 25.0975342,15.6148682 L25.0975342,19.6402588 L30.7331543,19.6402588 L30.0289307,25.7790527 L25.0975342,25.7790527 L25.0975342,41.7802734 L18.8580323,41.7802734 L18.8580323,25.7790527 L13.5241699,25.6783448 L13.5241699,19.6402588 L18.7573242,19.6402588 L18.7573242,15.0109864 C18.7573242,15.0109864 18.4119873,8.12438963 25.1982422,6.85949709 C28.0162354,6.33398438 31.3370362,7.06054688 31.3370362,7.06054688 L31.3370362,7.06054687 Z" id="Path" fill="#FFFFFF"></path>
                                    <path d="M31.3370362,12.4951172 L31.3370362,7.06054687 C31.3370362,7.06054687 28.0162354,6.33398437 25.1982422,6.85949709 C24.7580567,6.94152834 24.3486328,7.04772947 23.9666748,7.17333984 L23.9666748,41.7802734 L25.0975342,41.7802734 L25.0975342,25.7790527 L30.0285645,25.7790527 L30.7331542,19.6402588 L25.0975342,19.6402588 C25.0975342,19.6402588 25.0975342,19.6402588 25.0975342,15.6148682 C25.0975342,11.5894776 31.3370362,12.4951172 31.3370362,12.4951172 Z" id="Path" fill="#DCE1EB"></path>
                                </g>
                            </g>
                        </g>
                    </g>
                </g>
            </g>
        </g>
    </g>
</svg>