<?xml version="1.0" encoding="UTF-8"?>
<svg width="48px" height="48px" viewBox="0 0 48 48" version="1.1" xmlns="http://www.w3.org/2000/svg" xmlns:xlink="http://www.w3.org/1999/xlink">
    <title>Group 22</title>
    <g id="Page-1" stroke="none" stroke-width="1" fill="none" fill-rule="evenodd">
        <g id="share-2" transform="translate(-1043.000000, -915.000000)" fill-rule="nonzero">
            <g id="Group-15" transform="translate(475.000000, 118.000000)">
                <g id="Group-3-Copy" transform="translate(208.000000, 796.000000)">
                    <g id="Group-9">
                        <g id="Group-24">
                            <g id="Group-23">
                                <g id="Group-22" transform="translate(360.000000, 1.000000)">
                                    <g id="Group-2" fill="#FFFFFF">
                                        <g id="145813">
                                            <circle id="XMLID_11_" cx="23.8292389" cy="23.8292389" r="23.8292389"></circle>
                                        </g>
                                    </g>
                                    <g id="2702602" transform="translate(11.000000, 10.000000)">
                                        <path d="M6.09375,13 C6.09375,11.711832 6.44866016,10.5051172 7.06524609,9.47187109 L7.06524609,5.08904297 L2.68241797,5.08904297 C0.94290625,7.34819922 -7.21644966e-16,10.1015078 -7.21644966e-16,13 C-7.21644966e-16,15.8984922 0.94290625,18.6518008 2.68241797,20.910957 L7.06524609,20.910957 L7.06524609,16.5281289 C6.44866016,15.4948828 6.09375,14.288168 6.09375,13 L6.09375,13 Z" id="Path" fill="#FBBD00"></path>
                                        <path d="M13,19.90625 L9.953125,22.953125 L13,26 C15.898543,26 18.6518008,25.0570938 20.910957,23.317582 L20.910957,18.9394258 L16.5328008,18.9394258 C15.4905156,19.5582461 14.2787227,19.90625 13,19.90625 L13,19.90625 Z" id="Path" fill="#0F9D58"></path>
                                        <path d="M7.06524609,16.5281289 L2.68241797,20.910957 C3.02681641,21.3582383 3.40183594,21.7865781 3.80762891,22.1924219 C6.26300391,24.6477461 9.52757812,26 13,26 L13,19.90625 C10.4800312,19.90625 8.27140234,18.549375 7.06524609,16.5281289 Z" id="Path" fill="#31AA52"></path>
                                        <path d="M26,13 C26,12.209082 25.9283984,11.4166914 25.787125,10.644918 L25.6728164,10.0203594 L13,10.0203594 L13,16.1141094 L19.1674844,16.1141094 C18.5685703,17.3054883 17.6477031,18.2774922 16.53275,18.9394766 L20.9109063,23.3176328 C21.3581875,22.9732344 21.7865273,22.5982148 22.1923711,22.1924219 C24.6477461,19.7369961 26,16.4724219 26,13 L26,13 Z" id="Path" fill="#3C79E6"></path>
                                        <path d="M17.8834805,8.11651953 L18.4220664,8.65510547 L22.7310078,4.34621484 L22.1924219,3.80762891 C19.7370469,1.35225391 16.4724727,0 13,0 L9.953125,3.046875 L13,6.09375 C14.8446797,6.09375 16.5790117,6.81210156 17.8834805,8.11651953 Z" id="Path" fill="#CF2D48"></path>
                                        <path d="M13,6.09375 L13,0 C9.52757812,0 6.26300391,1.35225391 3.80757813,3.80757813 C3.40178516,4.21337109 3.02676563,4.64171094 2.68236719,5.08904297 L7.06519531,9.47187109 C8.27140234,7.450625 10.4800312,6.09375 13,6.09375 Z" id="Path" fill="#EB4132"></path>
                                    </g>
                                </g>
                            </g>
                        </g>
                    </g>
                </g>
            </g>
        </g>
    </g>
</svg>