<?xml version="1.0" encoding="UTF-8"?>
<svg width="104px" height="49px" viewBox="0 0 104 49" version="1.1" xmlns="http://www.w3.org/2000/svg" xmlns:xlink="http://www.w3.org/1999/xlink">
    <title>b4m_logo-d9d894de1d81970c7730f8e3223ddcce@2x</title>
    <g id="Page-1" stroke="none" stroke-width="1" fill="none" fill-rule="evenodd">
        <g id="2_W(video-fon)-Icon2" transform="translate(-377.000000, -53.000000)">
            <g id="b4m_logo-d9d894de1d81970c7730f8e3223ddcce" transform="translate(377.000000, 54.000000)">
                <path d="M85.5636364,18.5746027 L85.5636364,9.11220096 C85.5636364,9.11220096 85.5636364,4.72131148 81.2031762,4.72131148 L71.8063506,4.72131148 C71.8063506,4.72131148 67.4424242,4.72131148 67.4424242,9.11220096 L67.4424242,18.5746027 C67.4424242,18.5746027 67.4424242,22.9689825 71.8063506,22.9689825 L77.8756395,22.9689825 L83.7508221,25.9672131 L81.7057729,22.9236077 C82.8496137,22.7735217 85.5636364,22.047524 85.5636364,18.5746027 L85.5636364,18.5746027 Z" id="Path" fill="#0089B3" fill-rule="nonzero"></path>
                <path d="M85.5636364,18.5746027 L85.5636364,9.11220096 C85.5636364,9.11220096 85.5636364,4.72131148 81.2031762,4.72131148 L71.8063506,4.72131148 C71.8063506,4.72131148 67.4424242,4.72131148 67.4424242,9.11220096 L67.4424242,18.5746027 C67.4424242,18.5746027 67.4424242,22.9689825 71.8063506,22.9689825 L77.8756395,22.9689825 L83.7508221,25.9672131 L81.7057729,22.9236077 C82.8496137,22.7735217 85.5636364,22.047524 85.5636364,18.5746027 L85.5636364,18.5746027 Z" id="Path" stroke="#1D1D1B" stroke-width="1.12000008" stroke-linecap="round" stroke-linejoin="round"></path>
                <path d="M99.9337674,30.5151761 L103.684848,30.5151761 L103.684848,27.5409836 L97.8804671,27.5409836 L97.7099634,27.5409836 C96.4363366,27.5632212 95.3498333,28.4564898 95.0979921,29.688415 C95.0633373,29.8227651 95.0366885,29.9590024 95.0181818,30.096427 L95.0181818,36.73199 C95.0363552,36.8694678 95.0630082,37.0057247 95.0979921,37.140002 C95.3510771,38.3711953 96.4368425,39.2638568 97.7099634,39.2874334 C99.6870812,39.3769097 101.675082,39.3375401 103.677593,39.3232239 L103.677593,36.2774503 L99.578249,36.2774503 L99.578249,36.2595551 C99.4211789,36.2685475 99.2637127,36.2685475 99.1066431,36.2595551 C98.7483952,36.2165746 98.491501,35.8977743 98.5298322,35.5437446 C98.5229437,35.3711047 98.5874231,35.203108 98.708488,35.0782692 C98.8295528,34.9534304 98.9968206,34.8824569 99.1719424,34.8816199 C99.3061687,34.8816199 99.4440227,34.8816199 99.578249,34.8816199 L103.340213,34.8816199 L103.340213,31.9754294 L99.5709936,31.9754294 L99.5709936,31.9754294 C99.4135725,31.9784765 99.2561059,31.9725013 99.0993876,31.9575342 C98.7401006,31.9163916 98.4821964,31.5963375 98.5225768,31.2417237 C98.514675,31.0684775 98.5787025,30.8995402 98.6998793,30.7739109 C98.8210562,30.6482816 98.988908,30.5768189 99.1646869,30.57602 C99.4186286,30.57602 99.6725702,30.57602 99.9337674,30.57602 L99.9337674,30.5151761 Z" id="Path" fill="#0089B3" fill-rule="nonzero"></path>
                <path d="M8.00692823,33.2041002 C8.05749499,33.1251726 8.11606665,33.0523523 8.18159538,32.9869423 C9.29341908,32.1859497 9.63603542,31.0681202 9.31357298,29.7331326 C9.0795142,28.5097841 8.07599959,27.622252 6.89846351,27.5971526 C4.76886771,27.4903535 2.63255394,27.5686728 0.472727273,27.5686728 L0.472727273,39.3165632 C2.71652853,39.3165632 4.90994504,39.3913225 7.10000253,39.2952034 C7.97260215,39.2786866 8.79101603,38.8435067 9.32515159,38.1120119 C9.85928715,37.3805172 10.0514635,36.4317012 9.84765139,35.5323185 C9.65248993,34.4749382 8.95671033,33.5989261 8.00692823,33.2147801 L8.00692823,33.2041002 Z M6.20315384,31.2354386 C6.12751759,31.5727616 5.90208242,31.8501789 5.59853673,31.9794716 C4.96441561,32.0444871 4.32638021,32.0552017 3.69063387,32.0115114 L3.69063387,30.5163253 C4.34330391,30.4786591 4.99765949,30.4893651 5.64892148,30.548365 C5.87397344,30.5839647 6.23002571,31.0254006 6.20315384,31.2354386 L6.20315384,31.2354386 Z M6.51889835,35.5429984 C6.43613405,35.9047813 6.18159353,36.1947849 5.84710157,36.3083913 C5.13117578,36.3758427 4.41155549,36.3877409 3.69399286,36.3439909 L3.69399286,34.7669256 C4.40935124,34.725021 5.12661272,34.7369174 5.8403836,34.8025253 C6.16896836,34.9115085 6.42230982,35.1907485 6.51218039,35.5429984 L6.51889835,35.5429984 Z" id="Shape" fill="#C71066" fill-rule="nonzero"></path>
                <path d="M20.9575758,31.5418764 C20.9575758,28.7834054 19.5068823,27.098843 16.8171259,26.7900065 C14.0522747,26.4776606 11.3556915,28.2148656 11.5092943,31.5383669 C11.5912158,33.4019141 11.5092943,35.2724803 11.5092943,37.153575 L11.5092943,38.557377 L14.8202889,38.557377 L14.8202889,35.8866437 L17.636341,35.8866437 L17.636341,38.557377 L20.9405088,38.557377 C20.9405088,36.1744231 20.9405088,33.8581498 20.9405088,31.5383669 L20.9575758,31.5418764 Z M17.6261008,33.2053818 L14.8475961,33.2053818 C14.8155792,32.4873104 14.8212765,31.7679857 14.8646631,31.0505457 C14.9431712,30.2960021 15.5473424,29.871352 16.3051164,29.899428 C16.6470829,29.8851531 16.9800426,30.0141824 17.2277704,30.2569772 C17.4754982,30.4997719 17.6167807,30.835541 17.619274,31.1874164 C17.653408,31.8436938 17.619274,32.5034808 17.619274,33.2053818 L17.6261008,33.2053818 Z" id="Shape" fill="#C71066" fill-rule="nonzero"></path>
                <path d="M71.3818182,37.0472382 L71.3818182,34.3448569 L69.5737674,34.3448569 L69.5737674,27.5462344 C68.4238474,27.5462344 67.3787943,27.5711248 66.3373573,27.5462344 C65.898355,27.5023887 65.4791575,27.7363031 65.2923043,28.1293798 C64.1713131,29.9534872 63.0937151,31.8131523 61.849776,33.5554771 C61.0542339,34.6648757 61.1012432,35.795609 61.1807974,37.1432438 L66.3301251,37.1432438 L66.3301251,39.3442623 L69.6063123,39.3442623 L69.6063123,37.1361323 L71.3637377,37.0472382 L71.3818182,37.0472382 Z M66.2794997,34.3377454 L64.3159571,34.3377454 C64.9849357,33.2710159 65.5671279,32.3358497 66.2794997,31.2051164 L66.2794997,34.3377454 Z" id="Shape" fill="#C71066" fill-rule="nonzero"></path>
                <polygon id="Path" fill="#C71066" fill-rule="nonzero" points="40.6545455 27.5409836 40.6545455 30.520452 37.6372877 30.520452 37.6372877 39.3442623 34.2349232 39.3442623 34.2349232 30.5920739 31.2 30.5920739 31.2 27.5409836"></polygon>
                <polygon id="Path" fill="#C71066" fill-rule="nonzero" points="28.2102524 39.3442623 24.7706257 39.3442623 24.7706257 30.5971259 21.7454545 30.5971259 21.7454545 27.5409836 31.2 27.5409836 31.2 30.5364315 28.2102524 30.5364315"></polygon>
                <polygon id="Path" fill="#C71066" fill-rule="nonzero" points="45.5569023 36.3326378 50.1090909 36.3326378 50.1090909 39.3442623 42.230303 39.3442623 42.230303 27.5409836 45.5534006 27.5409836 45.5534006 36.3183308"></polygon>
                <path d="M76.0959598,37.4227066 C76.0959598,38.5424316 75.2621362,39.3543168 74.1066012,39.3441682 C72.9510661,39.3340196 72.1763324,38.5593458 72.1697668,37.4565352 C72.1607017,36.3355557 73.0352007,35.4192496 74.123015,35.409908 C75.2108293,35.4005666 76.1000258,36.3017272 76.1090909,37.4227066 L76.0959598,37.4227066 Z" id="Path" fill="#C71066" fill-rule="nonzero"></path>
                <path d="M49.4310128,3.90058059 C49.4310128,3.90058059 51.9646067,5.09309287 54.5227304,3.90058059 C56.6077769,2.92457628 56.3870073,0 56.3870073,0 C57.2763022,1.20675891 58.6955808,1.92946676 60.21368,1.94857198 C61.7569184,1.91889063 63.2139736,1.24505607 64.2190714,0.0962257764 C64.2190714,0.0962257764 63.8686435,2.04479775 65.1617224,3.21325361 C67.1346315,4.97968392 69.0164294,3.90058059 69.0164294,3.90058059 C69.0164294,3.90058059 67.2257428,5.35771378 68.0422398,6.91794601 C68.7150614,8.67062978 71.3818182,7.30628577 71.3818182,7.30628577 C71.3818182,7.30628577 69.2301904,9.11051906 69.3318145,11.2859089 C69.4334386,13.4612988 71.3818182,14.5163457 71.3818182,14.5163457 C71.3818182,14.5163457 68.8166855,14.9459251 68.0422398,16.3652553 C66.8963406,18.4684758 67.3869396,20.1661734 67.3869396,20.1661734 C66.4744364,19.1641579 65.1648633,18.5978155 63.7950536,18.6128145 C61.4647076,18.6128145 59.761628,21.0975015 59.761628,21.0975015 C59.761628,21.0975015 59.6635082,19.8912427 57.0808546,19.3791841 C54.4982004,18.8671255 49.2873374,25.9672131 48.8843453,25.9672131 C48.8843453,25.9672131 52.8967449,17.8086419 51.9155468,15.7226046 C50.6610149,13.0523392 47.7454545,12.6639995 47.7454545,12.6639995 C47.7454545,12.6639995 50.1143474,12.6639995 50.6610149,8.96274377 C51.0534942,6.3165349 49.4310128,3.90058059 49.4310128,3.90058059 L49.4310128,3.90058059 Z" id="Path" fill="#C71066" fill-rule="nonzero"></path>
                <path d="M49.4310128,3.90058059 C49.4310128,3.90058059 51.9646067,5.09309287 54.5227304,3.90058059 C56.6077769,2.92457628 56.3870073,0 56.3870073,0 C57.2763022,1.20675891 58.6955808,1.92946676 60.21368,1.94857198 C61.7569184,1.91889063 63.2139736,1.24505607 64.2190714,0.0962257764 C64.2190714,0.0962257764 63.8686435,2.04479775 65.1617224,3.21325361 C67.1346315,4.97968392 69.0164294,3.90058059 69.0164294,3.90058059 C69.0164294,3.90058059 67.2257428,5.35771378 68.0422398,6.91794601 C68.7150614,8.67062978 71.3818182,7.30628577 71.3818182,7.30628577 C71.3818182,7.30628577 69.2301904,9.11051906 69.3318145,11.2859089 C69.4334386,13.4612988 71.3818182,14.5163457 71.3818182,14.5163457 C71.3818182,14.5163457 68.8166855,14.9459251 68.0422398,16.3652553 C66.8963406,18.4684758 67.3869396,20.1661734 67.3869396,20.1661734 C66.4744364,19.1641579 65.1648633,18.5978155 63.7950536,18.6128145 C61.4647076,18.6128145 59.761628,21.0975015 59.761628,21.0975015 C59.761628,21.0975015 59.6635082,19.8912427 57.0808546,19.3791841 C54.4982004,18.8671255 49.2873374,25.9672131 48.8843453,25.9672131 C48.8843453,25.9672131 52.8967449,17.8086419 51.9155468,15.7226046 C50.6610149,13.0523392 47.7454545,12.6639995 47.7454545,12.6639995 C47.7454545,12.6639995 50.1143474,12.6639995 50.6610149,8.96274377 C51.0534942,6.3165349 49.4310128,3.90058059 49.4310128,3.90058059 L49.4310128,3.90058059 Z" id="Path" stroke="#1D1D1B" stroke-width="1.12000008" stroke-linecap="round" stroke-linejoin="round"></path>
                <path d="M62.408005,12.7013414 C62.4696139,13.326946 62.714932,13.9222387 63.114818,14.4165044 C63.5565761,14.9447746 64.5496483,15.232922 65.1645755,14.5502872 C65.351881,14.3410372 65.517982,14.1180661 65.7123556,13.9053859 C66.0112087,13.5191369 66.3346155,13.1513766 66.6806893,12.8042512 C67.1352387,12.3899262 67.4063736,11.8205316 67.4369791,11.2160103 C67.4702761,10.3699419 67.3506672,9.52474996 67.0835727,8.71873298 C66.932915,8.01274935 66.4310717,7.42538683 65.7441621,7.15107397 C65.5412377,7.06903434 65.3600255,6.94356396 65.2140524,6.78402911 C65.0020085,6.53018496 64.860646,6.23174662 64.6556702,5.96418121 C64.1962418,5.31584959 63.76862,4.64350569 63.2420443,4.03633799 C62.4256754,3.07241639 61.3477851,2.89746976 60.2133503,3.48748583 C59.5925409,3.87802241 58.8597899,4.0666457 58.121184,4.02604701 C57.6809931,3.97939708 57.2418492,4.12231739 56.919602,4.41710419 C56.4821343,4.80663871 55.9512234,5.08375958 55.3752157,5.2232308 C55.1973872,5.27757867 55.031018,5.36238764 54.8839808,5.47364457 C54.2764488,5.94647377 53.6060039,6.33762499 52.8907677,6.6365251 C52.2860767,6.82734775 51.8566055,7.34944054 51.7987417,7.96406122 C51.6598288,8.77523407 51.6479139,9.60211792 51.7634011,10.4167443 C51.7977204,10.6276497 51.8784829,10.8288939 52.0001834,11.0067604 C52.2334317,11.349793 52.5444294,11.6379404 52.7494052,11.9912639 C53.3302974,13.0494864 54.4041593,13.7682533 55.6296684,13.9191072 C56.4892039,14.0190727 57.3605584,13.9561638 58.1953994,13.7338695 C58.6421183,13.6067 59.0981474,13.5126671 59.5595484,13.4525828 C60.3738019,13.4201447 61.17405,13.2361452 61.91677,12.9105913 L62.3903347,12.6876201 L62.408005,12.7013414 Z" id="Path" fill="#FFFFFF" fill-rule="nonzero"></path>
                <path d="M62.3903347,13.4733264 L61.91677,13.6962701 C61.17405,14.0217838 60.3738019,14.2057605 59.5595484,14.2381946 C59.0981474,14.2982714 58.6421183,14.3922928 58.1953994,14.5194466 C57.3605584,14.7417133 56.4892039,14.8046145 55.6296684,14.7046613 C54.4041593,14.5538261 53.3302974,13.835148 52.7494052,12.7770563 C52.5444294,12.4340661 52.2334317,12.1322347 52.0001834,11.7926744 C51.8784829,11.6148299 51.7977204,11.4136105 51.7634011,11.2027313 C51.6479139,10.3882055 51.6598288,9.56142386 51.7987417,8.75035125 C51.8566055,8.13580653 52.2860767,7.61377826 52.8907677,7.42297919 C53.6060039,7.12411601 54.2764488,6.73301313 54.8839808,6.26024237 C55.031018,6.14899918 55.1973872,6.06420069 55.3752157,6.00985953 C55.9512234,5.8704056 56.4821343,5.59331892 56.919602,5.20383255 C57.2418492,4.90908217 57.6809931,4.76617952 58.121184,4.81282369 C58.8597899,4.85341736 59.5925409,4.66481738 60.2133503,4.27432907 C61.3477851,3.68438591 62.4256754,3.85931091 63.2420443,4.8231134 C63.7544837,5.43020607 64.1821055,6.10246688 64.6556702,6.75071838 C64.8500438,7.01825072 65.0090767,7.31665218 65.2140524,7.57046497 C65.3600255,7.7299801 65.5412377,7.85543498 65.7441621,7.93746447 C66.4310717,8.21174343 66.932915,8.79903337 67.0835727,9.50492975 C67.3506672,10.3108471 67.4702761,11.1559347 67.4369791,12.0018984 C67.4063736,12.606345 67.1352387,13.1756693 66.6806893,13.5899431 C66.3346155,13.9370256 66.0112087,14.3047405 65.7123556,14.6909417 C65.5285842,14.9035956 65.3589491,15.1265392 65.1645755,15.3357633 C64.5496483,16.0217437 63.5565761,15.730202 63.114818,15.2019971 C62.714932,14.7077924 62.4696139,14.1125733 62.408005,13.487046 L62.3903347,13.4733264 Z M60.4819393,7.89287574 C60.5172799,7.97176348 60.5314162,7.9992027 60.5420184,8.02664191 C60.9484358,9.28198609 61.3513192,10.5373303 61.7648053,11.7995342 C61.8435094,12.1514568 62.1715625,12.3974806 62.5422995,12.3826176 C62.9199976,12.3916697 63.2910123,12.2848462 63.6025189,12.0773563 C64.100822,11.7343661 64.5425801,11.3193479 64.5001714,10.6573768 C64.4370272,10.1525035 64.3473811,9.65108591 64.2315824,9.15507972 C64.0787877,8.27577484 63.8165247,7.41773404 63.4505541,6.59980265 C63.3940091,6.47289628 63.3409981,6.34256001 63.2844531,6.21222374 C63.2279081,6.08188747 63.171363,5.97899042 63.114818,5.86923351 L63.1748971,5.84522419 C63.5597456,6.451283 63.8603875,7.10404139 64.0690155,7.78654878 C64.3128659,8.55484685 64.4931032,9.34372432 64.6698065,10.1291719 C64.782897,10.5601783 64.782897,11.011818 64.6698065,11.4428244 C64.4642319,12.1005595 63.9338905,12.6152698 63.2561806,12.8147852 C63.1497457,12.8493323 63.0627683,12.9250565 63.0158642,13.0240092 C62.8143892,13.7655293 63.0636629,14.5537851 63.659064,15.0579412 C63.8061275,15.2048324 64.0081796,15.287714 64.2192132,15.287714 C64.4302469,15.287714 64.6322989,15.2048324 64.7793625,15.0579412 C64.948468,14.8868515 65.1066189,14.7058712 65.2529271,14.5160167 C65.561293,14.0964021 65.9015088,13.6997175 66.2707378,13.3292706 C66.6900944,12.9629998 66.9323187,12.4430772 66.938676,11.8955715 C66.9372412,11.0149582 66.774498,10.1416059 66.4580432,9.3162851 C66.3619949,8.98353269 66.1128161,8.71257686 65.7830369,8.58228606 C65.1777611,8.32282354 64.6798987,7.87345872 64.369411,7.30636248 C63.9099826,6.6032326 63.4293497,5.91039238 62.9239785,5.24842127 C62.5913044,4.80494795 62.0741081,4.52636419 61.5103521,4.486983 C61.0515124,4.48997512 60.6038731,4.62484424 60.2239525,4.87456192 C59.7115132,5.13180456 59.1884716,5.41305656 58.5982828,5.36160803 C57.9161901,5.28266801 57.235867,5.52184134 56.7641032,6.00642963 C56.6096787,6.1312857 56.4338307,6.22880854 56.2445957,6.29454138 C55.8182809,6.44882175 55.4037584,6.63220856 55.004139,6.84332573 C54.3963439,7.28726914 53.7353703,7.65811371 53.0356644,7.94775417 C52.6286462,8.07304118 52.3460654,8.43231105 52.3288515,8.84638855 C52.2793745,9.53236897 52.2369658,10.2183494 52.2440339,10.9043298 C52.2440339,11.1855818 52.2440339,11.5320018 52.6257129,11.7069269 C52.6009744,11.5320018 52.5797701,11.3639367 52.5656338,11.2576097 C52.7529392,11.6486186 52.9190403,12.0739264 53.1487545,12.4786548 C53.6258532,13.3704294 54.3114623,13.9946716 55.3964201,14.118148 C55.7789453,14.1303772 56.1587341,14.0514768 56.5025824,13.8883446 C56.4764429,13.8504267 56.4468754,13.8148438 56.4142308,13.7820176 C55.9434313,13.3617902 55.6124409,12.8148556 55.4635674,12.2111225 C55.279796,11.4771234 55.1101609,10.7362646 54.9617302,10.0159851 L55.060684,10.1154523 C55.060684,9.91308807 55.0324115,9.74502288 55.0218093,9.57352779 C55.0650001,9.59984043 55.0955435,9.64183527 55.1066268,9.69014445 C55.1879103,10.1326018 55.2656597,10.5887788 55.332807,11.0346661 C55.4799639,11.7705739 55.7234312,12.4852102 56.0572902,13.1612054 C56.2516638,13.4630367 56.4354352,13.8025971 56.8312504,13.8986343 C57.5380634,14.0735593 58.174195,13.7888774 58.7820541,13.4767563 C58.8951442,13.4218779 58.9022123,13.3224108 58.8173948,13.1920745 C58.1759752,12.2124894 57.730007,11.124613 57.5027227,9.98511601 C57.4839689,9.82145222 57.4386436,9.66170042 57.3684283,9.51178956 C57.2730085,9.34372432 57.3260195,9.22367775 57.4143711,9.03160325 C57.4355275,9.08270957 57.4520816,9.1354988 57.463848,9.18937874 C57.7511008,10.5681362 58.2515274,11.8968092 58.9481552,13.1303362 C59.0697002,13.3096288 59.2609901,13.4333964 59.4782649,13.4733264 C59.847044,13.4911169 60.2162654,13.448209 60.5702909,13.3464201 C61.1148165,13.2486537 61.5711678,12.8896845 61.7824756,12.3929073 C61.8247773,12.2763708 61.8247773,12.149304 61.7824756,12.0327676 C61.6729191,11.7583754 61.4608752,11.5182822 61.3654554,11.2404602 C61.0897984,10.4207136 60.8530161,9.5872474 60.6339041,8.75035125 C60.5632228,8.48967871 60.3158382,8.23929588 60.4960755,7.87229633 L60.4819393,7.89287574 Z" id="Shape" fill="#1D1D1B" fill-rule="nonzero"></path>
                <path d="M65.2200238,14.9508197 C64.9120891,14.4524354 64.6495343,14.0050668 64.3675309,13.5773197 C64.2702884,13.4281968 64.2605642,13.334014 64.3675309,13.2045126 C64.5587746,12.9808283 64.6916727,12.6825825 64.9866417,12.6040968 C65.2297263,12.5491905 65.4782106,12.6589943 65.6349253,12.8905697 C65.8434207,13.0757629 65.9220723,13.4082305 65.8261689,13.6989726 C65.6414081,14.1424168 65.4015432,14.5544668 65.1973339,14.9508197 L65.2200238,14.9508197 Z M65.1973339,14.6957411 C65.3594048,14.4171168 65.5214757,14.1384925 65.686788,13.8245497 C65.8780316,13.4321211 65.7872719,13.1181783 65.469613,12.8199326 C65.2070581,12.5727026 64.9412619,12.6786583 64.6722242,13.0004497 C64.6149905,13.0763211 64.5543945,13.1483725 64.4907048,13.2162854 C64.344841,13.3654083 64.3740138,13.4321211 64.4907048,13.608714 C64.7305697,13.9579754 64.9218134,14.2601454 65.1908511,14.6957411 L65.1973339,14.6957411 Z" id="Shape" fill="#1D1D1B" fill-rule="nonzero"></path>
                <path d="M1.86341625,47.0971286 C2.07013769,47.1077281 2.27466349,47.0477855 2.44750561,46.9259431 C2.61502681,46.767553 2.69836037,46.5306186 2.67001585,46.2933009 C2.6715677,46.1664429 2.65154004,46.0403413 2.61091157,45.9211585 C2.57581156,45.8272962 2.52110473,45.7432793 2.45098234,45.6755445 C2.38294048,45.6066036 2.30079305,45.5556302 2.21108849,45.5266876 C2.110706,45.5021987 2.00809331,45.4897175 1.90513691,45.4894733 L1.47402334,45.4894733 L1.47402334,47.0896857 L1.86341625,47.0971286 Z M1.75911457,44.7526313 C1.9727954,44.771678 2.18643996,44.7154877 2.367541,44.5926101 C2.51247126,44.4525973 2.58394382,44.2453437 2.55876073,44.0381178 C2.57782554,43.8407472 2.51416023,43.644486 2.38492461,43.5022327 C2.22417803,43.3837864 2.03007918,43.328559 1.83560246,43.3459329 L1.48793022,43.3459329 L1.48793022,44.7377456 L1.75911457,44.7526313 Z M2.14850749,42.5718767 C2.33920889,42.5703616 2.52941572,42.5928445 2.71521324,42.6388623 C2.87795872,42.6779502 3.03092762,42.7541062 3.16371044,42.8621478 C3.2923514,42.972483 3.39281767,43.1158662 3.45575512,43.2789473 C3.53030176,43.4826545 3.56577361,43.7003404 3.56005679,43.9190323 C3.56800029,44.181589 3.50263559,44.4407196 3.37231378,44.6633171 C3.24118086,44.8748664 3.03985321,45.0251827 2.80908475,45.083838 L2.80908475,45.083838 C3.0660733,45.1113507 3.30297791,45.2448132 3.46966201,45.4559805 C3.64185128,45.7020205 3.7279727,46.0049072 3.71303258,46.3119081 C3.71469515,46.5133075 3.68893057,46.7138916 3.63654468,46.907336 C3.58685116,47.0918163 3.49755751,47.2613086 3.3757905,47.4022854 C3.24723867,47.5586015 3.08658012,47.6808885 2.90643297,47.7595421 C2.67165062,47.851289 2.42266749,47.8942333 2.17284454,47.8860705 L0.472727273,47.8860705 L0.472727273,42.5718767 L2.14850749,42.5718767 Z M7.39140491,43.4501328 L5.61827649,43.4501328 L5.61827649,44.7005314 L7.28710325,44.7005314 L7.28710325,45.5787875 L5.61827649,45.5787875 L5.61827649,47.0152573 L7.46093936,47.0152573 L7.46093936,47.8935134 L4.61698041,47.8935134 L4.61698041,42.5718767 L7.39835836,42.5718767 L7.39835836,43.4501328 L7.39140491,43.4501328 Z M11.0280566,45.89883 L11.5078443,43.5096756 L11.5078443,43.5096756 L11.987632,45.89883 L11.0280566,45.89883 Z M10.8959411,42.5867624 L9.58174004,47.9009562 L10.6247568,47.9009562 L10.8542205,46.784529 L12.175375,46.784529 L12.4048387,47.9009562 L13.4478554,47.9009562 L12.1336543,42.5867624 L10.8959411,42.5867624 Z M32.8410131,42.5867624 L32.8410131,43.4650185 L31.0678846,43.4650185 L31.0678846,44.7154171 L32.7367114,44.7154171 L32.7367114,45.5936732 L31.0678846,45.5936732 L31.0678846,47.9009562 L30.0665886,47.9009562 L30.0665886,42.5718767 L32.8410131,42.5867624 Z M33.5641714,42.5867624 L34.5654674,42.5867624 L34.5654674,47.0152573 L36.3385959,47.0152573 L36.3385959,47.8935134 L33.5572179,47.8935134 L33.5572179,42.5718767 L33.5641714,42.5867624 Z M38.0004692,46.3081864 C37.9989818,46.4327402 38.0071219,46.557212 38.0248063,46.680329 C38.037948,46.7822272 38.0685957,46.8806417 38.115201,46.9706002 C38.1578617,47.0515354 38.2203772,47.118451 38.2959906,47.1641142 C38.384569,47.2148033 38.4841998,47.2392156 38.5845586,47.2348213 C38.6861456,47.2406533 38.78725,47.2161748 38.8766032,47.1641142 C38.950521,47.1173447 39.0116653,47.0506136 39.0539161,46.9706002 C39.1005214,46.8806417 39.1311692,46.7822272 39.1443109,46.680329 C39.1619952,46.557212 39.1701354,46.4327402 39.168648,46.3081864 L39.168648,42.5867624 L40.169944,42.5867624 L40.169944,46.3081864 C40.1781396,46.593904 40.1332322,46.878518 40.0378286,47.1455071 C39.893271,47.5467077 39.5687365,47.8422576 39.1756014,47.9307276 C38.9814264,47.9758452 38.7832551,47.9983048 38.5845586,47.9978095 C38.3861867,47.9989016 38.1881968,47.9789557 37.9935158,47.9381705 C37.8085207,47.9026955 37.6343341,47.8196886 37.4859143,47.6962779 C37.3287828,47.5603445 37.2086981,47.3816786 37.138242,47.1789999 C37.0418587,46.900647 36.9969867,46.604882 37.0061266,46.3081864 L37.0061266,42.5867624 L38.0074226,42.5867624 L38.0074226,46.3081864 L38.0004692,46.3081864 Z M43.8552698,43.4799042 L42.0821413,43.4799042 L42.0821413,44.7303028 L43.7509681,44.7303028 L43.7509681,45.6085589 L42.0821413,45.6085589 L42.0821413,47.0152573 L43.9317577,47.0152573 L43.9317577,47.8935134 L41.0808453,47.8935134 L41.0808453,42.5718767 L43.8622232,42.5718767 L43.8622232,43.4501328 L43.8552698,43.4799042 Z M47.0677613,46.241201 L47.0677613,46.241201 L47.0677613,42.6016481 L47.985616,42.6016481 L47.985616,47.9158419 L46.8452511,47.9158419 L45.6214447,44.1944177 L45.6214447,44.1944177 L45.6214447,47.9158419 L44.70359,47.9158419 L44.70359,42.5718767 L45.8578619,42.5718767 L47.0677613,46.2114296 L47.0677613,46.241201 Z M50.9651672,43.5506113 C50.8712082,43.3710335 50.6872867,43.2674962 50.4958097,43.2863901 C50.3839859,43.2820401 50.2743444,43.3202804 50.1863814,43.3943114 C50.0921165,43.4884453 50.0256456,43.6100463 49.9951617,43.7441254 C49.9400854,43.9502959 49.9074201,44.1625807 49.8978134,44.3767674 C49.8769531,44.6372672 49.8699997,44.9573096 49.8699997,45.3331735 C49.865549,45.6586899 49.8783175,45.9842151 49.9082436,46.3081866 C49.9207419,46.5056652 49.9605797,46.7000608 50.0264522,46.8850074 C50.0603884,46.9998591 50.1320174,47.0976802 50.228102,47.1603928 C50.3146223,47.2098013 50.4116948,47.2341741 50.5097165,47.2310998 C50.5941532,47.2322859 50.6779973,47.2158536 50.7565638,47.1827213 C50.8411634,47.1440568 50.9110212,47.075841 50.954737,46.9892073 C51.0198699,46.8616316 51.0645289,46.7232559 51.0868524,46.5798506 C51.1229085,46.3499611 51.1392014,46.1170177 51.1355265,45.8839443 L52.1368225,45.8839443 C52.1380086,46.1582678 52.1170708,46.4321889 52.0742415,46.7026576 C52.0381204,46.9423888 51.959021,47.1723789 51.8413011,47.3799568 C51.724147,47.5763084 51.5579344,47.7335923 51.3615135,47.8339706 C51.1091104,47.9538594 50.8342949,48.0098895 50.5583907,47.9977132 C50.2490468,48.0135367 49.9408617,47.94705 49.6613962,47.8041992 C49.4408387,47.6797031 49.2621489,47.4845331 49.150318,47.2459855 C49.023882,46.973523 48.9460619,46.678196 48.9208544,46.3751723 C48.8843637,46.0043345 48.8669538,45.6316293 48.8687035,45.258745 C48.8671894,44.8858664 48.8845986,44.513175 48.9208544,44.1423177 C48.9465909,43.8382106 49.0243732,43.5417657 49.150318,43.267783 C49.2655914,43.0290354 49.4431349,42.8312392 49.6613962,42.6984051 C49.9392977,42.5497306 50.2480038,42.4792893 50.5583907,42.4937268 C50.8500787,42.4795908 51.1404555,42.5435444 51.4032341,42.679798 C51.5935743,42.7909864 51.7530912,42.9540282 51.8656382,43.1524189 C51.9653044,43.3435401 52.0301915,43.5531652 52.0568579,43.7701753 C52.0808125,43.9763697 52.093582,44.183877 52.0951019,44.3916531 L51.0938059,44.3916531 C51.1090985,44.1033876 51.065189,43.8150368 50.9651672,43.5468898 L50.9651672,43.5506113 Z M55.7595676,43.4799042 L53.9864387,43.4799042 L53.9864387,44.7303028 L55.6552659,44.7303028 L55.6552659,45.6085589 L53.9864387,45.6085589 L53.9864387,47.0152573 L55.829102,47.0152573 L55.829102,47.8935134 L52.9712359,47.8935134 L52.9712359,42.5718767 L55.7526141,42.5718767 L55.7526141,43.4501328 L55.7595676,43.4799042 Z M58.457504,42.6016481 C58.8104201,42.5779518 59.1585165,42.6990455 59.4309862,42.9402977 C59.6792728,43.2148754 59.80583,43.590112 59.7786584,43.9711322 C59.7900929,44.2771934 59.720169,44.5804464 59.5770085,44.8456669 C59.4341997,45.0778013 59.2073699,45.2356178 58.9511985,45.2810736 L58.9511985,45.2810736 C59.1563559,45.2997658 59.3497516,45.3914779 59.5005206,45.5415732 C59.6342095,45.7277772 59.7096385,45.9543639 59.7160774,46.1891011 C59.7160774,46.2883391 59.7230309,46.3962604 59.7369377,46.512865 C59.7369377,46.6319505 59.7369377,46.7622004 59.7369377,46.9036145 C59.7393456,47.12013 59.7532749,47.3363229 59.7786584,47.5511424 C59.7914493,47.6773671 59.8582341,47.7900943 59.959448,47.8562991 L59.959448,47.9009562 L58.8816641,47.9009562 C58.8296975,47.8254041 58.7962301,47.7371272 58.7843159,47.644178 C58.7695433,47.5443685 58.760256,47.443717 58.7565021,47.3427426 L58.7286883,46.3230723 C58.7283312,46.1471585 58.6773441,45.9756347 58.582666,45.8318443 C58.4681929,45.7017164 58.3038294,45.6357419 58.1376455,45.653216 L57.6022303,45.653216 L57.6022303,47.8860705 L56.6009343,47.8860705 L56.6009343,42.5718767 L58.457504,42.6016481 Z M58.0263904,44.9238168 C58.2263993,44.9378001 58.424273,44.8729362 58.582666,44.741467 C58.7279815,44.5768864 58.7990691,44.3526888 58.7773624,44.127432 C58.8059138,43.9221758 58.7419013,43.7145804 58.6048117,43.5678423 C58.4677226,43.4211044 58.2737776,43.3525865 58.082018,43.3831472 L57.6091838,43.3831472 L57.6091838,44.916374 L58.0263904,44.9238168 Z M61.9133658,47.9009562 L60.9676974,47.9009562 L60.9676974,46.9036145 L61.9272727,46.9036145 L61.9272727,47.8860705 L61.9133658,47.9009562 Z M60.9676974,44.2986175 L60.9676974,42.5718767 L61.9272727,42.5718767 L61.9272727,44.2986175 L61.7951573,46.4049437 L61.0998128,46.4049437 L60.9676974,44.2986175 Z" id="Shape" fill="#FFFFFF" fill-rule="nonzero"></path>
                <path d="M81.4157204,9.33327507 C80.8882036,9.05730464 80.3240667,8.85972835 79.7407429,8.74665196 C79.2054408,8.61745522 79.0500305,8.5127011 78.5009141,8.37302894 C78.3246212,8.35808581 78.1617655,8.27180244 78.049279,8.13374624 C77.9367926,7.99568999 77.8842072,7.8175591 77.9034479,7.63975006 C77.8863326,7.25950279 77.9572885,6.88046907 78.1106616,6.53284812 C78.1900936,6.28143823 78.3040611,6.04050376 78.3800395,5.78560202 C78.5783391,5.0981429 78.6405397,4.37788067 78.5630783,3.66607691 C78.5348942,3.27675302 78.4606895,2.89224375 78.3420503,2.52076514 C77.9517978,1.33005991 76.1732129,0.844699136 75.2994618,0.795813876 C75.0491284,0.760337587 74.7954633,0.831533189 74.5990365,0.992400582 C74.4026097,1.15326797 74.2810537,1.38936715 74.2633932,1.64432229 C74.2412056,2.01459085 74.2785277,2.38604765 74.3739072,2.7442406 C74.535005,3.69878297 74.5894524,4.66861155 74.5362246,5.63545445 C74.5125445,6.4227466 74.1940743,7.17157657 73.6452056,7.73053697 C73.3531024,8.11161434 73.1201873,8.53550392 72.9544933,8.98758648 C72.6271129,9.6774362 72.3947158,10.4093681 72.2637809,11.1629805 C72.0830412,11.9819569 72.1640603,12.8378008 72.4951695,13.6072434 C72.522798,13.6735877 72.5504265,13.7364401 72.578055,13.7888172 C72.7089736,14.0327822 72.7822602,14.3040766 72.7921758,14.5814567 C72.8026056,14.6976114 72.8026056,14.8144826 72.7921758,14.9306372 C72.7774972,14.9671511 72.7648152,15.0044533 72.7541867,15.0423749 C72.5928565,15.7151873 72.5530774,16.4119348 72.6367656,17.0990476 C72.7201859,17.8260227 73.1927851,18.4474735 73.8662336,18.7157529 C73.8965914,18.7283088 73.9277425,18.7388074 73.9594798,18.7471791 L73.9594798,18.7262283 C74.0277764,18.7712279 74.0993564,18.810916 74.1736006,18.8449496 L74.1736006,18.8449496 C74.2506338,18.9947935 74.3562758,19.127715 74.4844212,19.2360317 C74.612203,19.4141137 74.7468919,19.5852121 74.8850343,19.7598023 C75.2415529,20.2167947 75.7912075,20.4758816 76.3666124,20.4581632 C77.0329944,20.4675138 77.6972066,20.3793044 78.3385967,20.1962779 C78.9719558,20.0322199 79.4801499,19.5551938 79.6889394,18.9287529 C79.7716962,18.7034841 79.9123691,18.5046024 80.0964597,18.3526053 C80.1931595,18.2722938 80.2829521,18.1849987 80.3796518,18.1046872 C80.604603,17.9147406 80.7125027,17.6180573 80.6628439,17.3260148 C80.6628439,17.2561788 80.6628439,17.1828509 80.638669,17.1165066 C80.6132251,16.9336771 80.6823299,16.7504336 80.8217077,16.6311458 C80.9080468,16.5508343 80.9943858,16.4705228 81.0738178,16.3867195 C81.2900408,16.1751979 81.4941335,15.9513576 81.6850982,15.7162931 C82.0386497,15.3120432 82.061754,14.7119779 81.7403552,14.2811616 L81.4709774,13.8761123 C81.3554912,13.709175 81.3345434,13.4934037 81.4157204,13.3069483 C81.4850812,13.1297331 81.5780333,12.9629157 81.6920053,12.811112 C81.9460681,12.497635 82.1468098,12.1436271 82.286018,11.7635708 C82.6258189,10.8310801 82.2600373,9.78615825 81.4157204,9.27740621 L81.4157204,9.33327507 Z" id="Path" fill="#1D1D1B" fill-rule="nonzero"></path>
                <path d="M75.0051798,17.9192893 C75.2902032,18.1256293 75.7426778,18.4648662 76.0063244,18.6747035 C76.3527846,18.9243239 76.7701235,19.0612868 77.1998604,19.0663998 C77.7093397,19.1048699 77.9801119,19.1013727 78.4895912,19.1223564 C78.5465958,19.1223564 78.7603634,19.1223564 78.7924285,19.0908808 C78.8244936,19.0594052 79.0346984,19.045416 79.0346984,18.9439947 C78.9919449,19.020935 78.7140471,18.9439947 78.6534796,18.9439947 C78.372019,18.923011 78.2615725,18.9439947 77.9765491,18.923011 C77.5156159,18.8910449 77.0594181,18.8113299 76.6155619,18.6851954 C76.1718854,18.4417777 75.7562047,18.1521644 75.3757102,17.8213652 C75.1617513,17.6695176 75.0304634,17.4298115 75.019431,17.1708696 C75.1120636,16.8701029 75.2795148,16.4294445 75.3757102,16.1216832 C75.4006498,16.0552347 75.5217847,16.1006995 75.5894777,16.1216832 C76.4942448,16.4193368 77.4298539,16.6175626 78.3791446,16.7127249 C78.7354238,16.7616869 79.1344566,16.7686815 79.4978614,16.810649 C79.5500563,16.8141038 79.6024293,16.8141038 79.6546242,16.810649 C79.8187804,16.8301107 79.9852239,16.8046956 80.1356012,16.7372059 C80.0256829,16.6800562 79.9036777,16.6489181 79.779322,16.6462764 C79.4515451,16.6113036 78.9705681,16.6462764 78.6570424,16.5903198 C77.8129009,16.448123 76.9796426,16.2494808 76.1630873,15.9957808 C75.568101,15.8349056 75.2225101,15.5376361 75.1975706,14.9256107 C75.1740628,14.5751523 75.1907942,14.2232104 75.2474497,13.8764242 C75.3016739,13.6808185 75.3883398,13.4953123 75.5039707,13.32735 C75.5217847,13.302869 75.7604918,13.400793 75.7925569,13.4182795 C76.336152,13.6518294 76.9235735,13.770966 77.5169489,13.7680083 C78.3007632,13.8064785 79.0917031,13.7959866 79.8790802,13.8029812 C79.919385,13.8063563 79.9599097,13.8063563 80.0002151,13.8029812 C80.1854803,13.7575165 80.2317966,13.7435273 80.3066152,13.6525978 L79.9004569,13.6246195 C79.8577034,13.6246195 79.5441777,13.6840734 79.5121125,13.6840734 C78.731861,13.6840734 78.6071633,13.5931439 77.8269118,13.5651656 C77.3263548,13.5833924 76.8260374,13.5231831 76.3447897,13.3868039 C76.1590878,13.3087778 75.9782568,13.2200245 75.8032453,13.12101 C75.5110963,12.9426483 75.2688264,12.7712812 75.2866404,12.4215524 C75.3044544,12.0718236 75.2545753,11.6941165 75.3080172,11.3548795 C75.3245536,11.0640753 75.4672266,10.7941615 75.6999243,10.6134545 C76.1343152,10.347218 76.6190708,10.1699664 77.1250417,10.0923585 C77.2319255,10.0923585 77.4385674,10.0573857 77.5454512,10.0503911 L77.9729863,10.0189155 C77.834071,9.94709099 77.6767946,9.91670031 77.5205117,9.93148329 C76.9173717,9.89714857 76.3161479,10.0253413 75.7818685,10.3021958 C75.3640339,10.4900486 75.0965822,10.900259 75.0978124,11.3513823 C75.0764357,11.6661382 75.0301194,11.9843914 75.0123054,12.3026446 C74.9859397,12.608587 75.1072828,12.9089561 75.3400823,13.1140154 C75.3935242,13.1629775 75.4042125,13.2014476 75.3400823,13.2609015 C75.1109922,13.5215922 74.9735666,13.8478018 74.9481751,14.1911802 C74.8734771,14.6229445 74.9015229,15.0658173 75.0301194,15.4851768 C75.0473684,15.5458257 75.0737895,15.603591 75.1085008,15.6565439 C75.2006183,15.7796044 75.2090306,15.9447519 75.1298775,16.0762185 C75.0051798,16.4049635 74.9054216,16.7407032 74.8092262,17.0799401 C74.7493693,17.2766913 74.7778844,17.4891653 74.8876077,17.6639872 C74.908958,17.7094862 74.908958,17.7618771 74.8876077,17.807376 C74.6939959,18.0726046 74.5973261,18.3942527 74.6132727,18.7201683 C74.6151258,18.7364383 74.6151258,18.7528603 74.6132727,18.7691303 L74.5242029,18.741152 C73.8910056,18.4620138 73.4596115,17.8702349 73.3947977,17.1918533 C73.3178592,16.5342842 73.35399,15.8686998 73.5016815,15.2228802 L73.5408722,15.1074697 C73.7190118,15.3277988 73.8757747,15.5271442 74.0325375,15.7264897 L74.0574771,15.7264897 C73.9684073,15.4571985 73.8971514,15.1809127 73.7902676,14.9186161 C73.6833839,14.6563195 73.5408722,14.408012 73.4054861,14.1597046 C72.9768012,13.3447133 72.8508194,12.4085623 73.0492069,11.5122575 C73.169562,10.7932818 73.3876502,10.0934088 73.697635,9.43137108 C73.9210919,8.99120053 74.2078615,8.58485495 74.5491424,8.22480667 C75.0619697,7.67160937 75.3531033,6.95467255 75.3685846,6.20687147 C75.4170177,5.28215404 75.3668663,4.3549999 75.2189473,3.44051657 C75.1321308,3.09767864 75.0973157,2.74414358 75.1156264,2.39133013 C75.1218831,2.15487855 75.2294846,1.93199356 75.4119565,1.77751337 C75.5944285,1.62303318 75.8348315,1.55129868 76.0740175,1.5799593 C77.1029947,1.61895797 78.0017553,2.27473039 78.3363911,3.23067928 C78.4450939,3.5870733 78.5132028,3.95420022 78.5394703,4.32533045 C78.6108707,5.00698968 78.5541118,5.69572492 78.372019,6.35725485 C78.2972004,6.59856771 78.1974422,6.82938871 78.1190608,7.05671247 C77.9783554,7.46638337 77.9143804,7.8976781 77.9302328,8.3297253 C77.9587351,8.75639447 78.0656189,8.91726971 78.4789028,9.02918292 C78.9705681,9.1655772 79.4657962,9.26350126 79.9610244,9.37891176 C80.4995974,9.48913543 81.018368,9.67774007 81.5001506,9.93847787 C82.2886144,10.3785468 82.6212357,11.3251144 82.2768394,12.1487639 C82.1490792,12.5053683 81.9638328,12.8395299 81.7281693,13.1384965 C81.6244056,13.2850728 81.5394457,13.4436467 81.4752111,13.6106304 C81.4014735,13.790184 81.4214124,13.9937355 81.528653,14.1562073 C81.6070344,14.285607 81.6889786,14.4185039 81.7744856,14.5444063 C82.0706921,14.9630485 82.048897,15.5235794 81.7210438,15.9188405 C81.5472161,16.1446211 81.3592106,16.3595387 81.1581226,16.5623415 C81.0868667,16.6427791 81.0084853,16.7162222 80.9301039,16.7931625 C80.7996711,16.9118389 80.7359281,17.0852119 80.7590898,17.2583019 C80.7590898,17.3247503 80.7590898,17.3911988 80.7840294,17.4576473 C80.8317678,17.7349182 80.7324091,18.0169698 80.5203828,18.2060669 C80.431313,18.2830072 80.3493687,18.3669422 80.2602989,18.4438825 C80.087249,18.5916998 79.9580138,18.7825929 79.8862057,18.996454 C79.7089156,19.5814662 79.240269,20.0375422 78.6427912,20.2065157 C78.0553672,20.3827121 77.4434917,20.4676729 76.8293295,20.4583204 C76.2876054,20.466372 75.7768343,20.2110999 75.46478,19.7763493 C75.3400823,19.6119767 75.2153846,19.4441069 75.1085008,19.2727398 C74.8951079,19.1166789 74.7614355,18.8772108 74.7422819,18.6166748 C74.7231278,18.3561388 74.820388,18.1003119 75.0087426,17.915792 L75.0051798,17.9192893 Z" id="Path" fill="#FFFFFF" fill-rule="nonzero"></path>
                <path d="M75.3167781,10.2295082 C74.9703817,10.3131163 74.6841329,10.5075718 74.5275141,10.7656733 C74.3387552,11.1238152 74.2495392,11.5098235 74.2659041,11.8975775 C74.2581305,12.2071316 74.2953241,12.5163684 74.3767558,12.8192208 C74.4225502,13.0360692 74.410468,13.2580894 74.3412832,13.4710294 C74.2227213,13.7718288 74.1468754,14.0821204 74.1151458,14.3961771 C74.1175833,14.7769687 74.1801435,15.1560314 74.3013766,15.5245769 C74.4166624,15.9100551 74.3013766,15.9415942 74.1905249,16.3270724 C74.0709667,16.6282052 73.9820034,16.9363977 73.9244809,17.2487157 C73.9867251,17.4951164 73.9745719,17.7496448 73.8890084,17.9916374 C73.7517658,18.276302 73.7119985,18.5845481 73.7737226,18.8852459 L73.9244809,18.7976372 C73.9244809,18.7976372 73.8890084,17.9916374 74.3412832,17.7253069 C74.1803646,17.466565 74.139561,17.1713704 74.2259975,16.8912723 C74.4166624,16.565368 74.789124,15.7628725 74.789124,15.7628725 C74.5024046,15.5449264 74.3420085,15.2432264 74.3457173,14.9288379 C74.2969426,14.3926727 74.3457173,13.527099 74.7580856,13.2923077 C74.8473402,13.2401002 74.8999878,13.1575396 74.8999878,13.0697816 C74.8999878,12.9820237 74.8473402,12.8994631 74.7580856,12.8472556 C74.6472339,12.7596469 74.3146788,12.5493861 74.4964756,11.6873167 C74.6782724,10.8252472 74.6073273,10.7060994 75.3212121,10.2295082 L75.3167781,10.2295082 Z" id="Path" fill="#1D1D1B" fill-rule="nonzero"></path>
                <path d="M15.4445028,42.561695 C15.4417314,42.6014171 15.4417314,42.6412642 15.4445028,42.6809863 C15.4445028,43.6482138 15.4445028,44.6315617 15.4445028,45.6052373 C15.4462084,45.7387949 15.4636638,45.8717765 15.4965564,46.0018006 C15.6557142,46.5372171 16.0940361,46.9623682 16.6629467,47.1331426 C17.2318573,47.303917 17.8550687,47.1974148 18.3213345,46.8497366 L18.5781325,46.6466189 C18.9928643,47.0637374 19.5995914,47.2680602 20.2056766,47.1947144 C21.0127207,47.0948136 21.6315582,46.4793827 21.6840002,45.7245287 C21.7048217,44.7024917 21.6840002,43.6772306 21.6840002,42.6551936 C21.6868397,42.6273137 21.6868397,42.5992471 21.6840002,42.5713672 L20.0009323,42.5713672 L20.0009323,45.3763268 C20.0009323,45.6374783 19.8968249,45.7728901 19.7024913,45.769666 C19.5081577,45.7664419 19.4144611,45.6374783 19.4144611,45.382775 C19.4144611,44.4929258 19.4144611,43.6030765 19.4144611,42.7132272 C19.4144611,42.5874877 19.3762885,42.5584709 19.2444192,42.5584709 C18.7898173,42.5584709 18.3317452,42.5584709 17.8736731,42.5584709 L17.7175121,42.5584709 L17.7175121,45.3795509 C17.7209709,45.4278589 17.7209709,45.476327 17.7175121,45.5246351 C17.6903732,45.6627074 17.559712,45.762277 17.4086605,45.7599937 C17.2628561,45.7520519 17.1465296,45.6439768 17.1379815,45.5085146 C17.1379815,45.4569291 17.1379815,45.4021196 17.1379815,45.34731 C17.1379815,44.4639089 17.1379815,43.5772838 17.1379815,42.6938827 C17.1379815,42.5842636 17.1067494,42.5487986 16.9852908,42.5520227 C16.6000938,42.5520227 16.2148968,42.5520227 15.8296998,42.5520227 L15.4445028,42.561695 Z M28.8361717,47.1366808 L28.8361717,47.0335099 C28.8361717,46.0824029 28.8361717,45.1280718 28.8361717,44.1769648 C28.8444481,43.6739938 28.5846599,43.1997196 28.142123,42.9098969 C27.5405221,42.5058496 26.7701061,42.3865549 26.059977,42.5874877 C25.1876742,42.7617558 24.579564,43.4973159 24.6232963,44.325273 C24.6510582,45.2183463 24.6232963,46.1146438 24.6232963,47.0077171 L24.6232963,47.1399049 L26.3098345,47.1399049 L26.3098345,44.3704103 C26.2900064,44.2398733 26.3469454,44.1094681 26.459055,44.0286566 C26.5903386,43.9390808 26.7645692,43.925384 26.9101866,43.9931916 C27.0454763,44.0490776 27.1277009,44.1785559 27.114931,44.3156007 C27.114931,45.2022259 27.114931,46.0856269 27.114931,46.9722521 L27.114931,47.1302326 L28.8361717,47.1366808 Z M22.3190548,42.561695 L22.3190548,47.1302326 L23.991712,47.1302326 C23.991712,47.1108881 23.991712,47.1044399 23.991712,47.0947676 C23.991712,45.6181337 23.991712,44.1393504 23.991712,42.6584177 C23.991712,42.564919 23.9396584,42.561695 23.863313,42.561695 L22.3017036,42.561695 L22.3190548,42.561695 Z" id="Shape" fill="#0089B3" fill-rule="nonzero"></path>
                <path d="M15.469045,42.4918033 L15.8473924,42.4918033 C16.2362493,42.4918033 16.6251063,42.4918033 17.0139632,42.4918033 C17.1365758,42.4918033 17.1681048,42.5244607 17.1681048,42.6354961 C17.1681048,43.5303103 17.1681048,44.4283903 17.1681048,45.3232046 C17.1681048,45.3787222 17.1681048,45.4342399 17.1681048,45.4864919 C17.1767341,45.6237042 17.2941658,45.7331756 17.4413556,45.74122 C17.5938424,45.7435328 17.725745,45.6426768 17.7531418,45.5028206 C17.7566334,45.4538884 17.7566334,45.4047941 17.7531418,45.355862 L17.7531418,42.4983348 L17.9107865,42.4983348 C18.373211,42.4983348 18.8356355,42.4983348 19.2945568,42.4983348 C19.427679,42.4983348 19.4697176,42.5277265 19.4662144,42.6550905 C19.4662144,43.5564363 19.4662144,44.457782 19.4662144,45.3591278 C19.4662144,45.6171217 19.5608012,45.7477515 19.7569813,45.7510172 C19.9531613,45.754283 20.0582579,45.6171217 20.0582579,45.3525963 L20.0582579,42.5113977 L21.7433047,42.5113977 C21.7461712,42.5396378 21.7461712,42.5680671 21.7433047,42.5963071 C21.7433047,43.6315485 21.7433047,44.6700555 21.7433047,45.7052968 C21.6903644,46.4699032 21.065647,47.0932852 20.2509347,47.1944767 C19.6390908,47.2687701 19.0265989,47.0618075 18.6079265,46.6393 L18.3486885,46.8450419 C17.8779925,47.197212 17.2488596,47.3050901 16.6745435,47.1321094 C16.1002274,46.9591286 15.6577407,46.5284848 15.4970708,45.9861509 C15.4638656,45.854447 15.4462444,45.7197473 15.4445225,45.5844642 C15.4445225,44.6047406 15.4445225,43.625017 15.4445225,42.6224331 C15.4417248,42.5821978 15.4417248,42.5418358 15.4445225,42.5016005 L15.469045,42.4918033 Z" id="Path" fill="#0089B3" fill-rule="nonzero"></path>
                <path d="M28.8167255,47.2032901 L27.2275981,47.2032901 L27.2275981,47.0428214 C27.2275981,46.1422314 27.2275981,45.2449164 27.2275981,44.3443264 C27.2395323,44.205123 27.1626893,44.0736054 27.0362542,44.0168392 C26.9001674,43.9479636 26.7373401,43.9618761 26.614649,44.0528628 C26.5098769,44.1349471 26.4566645,44.2674063 26.475195,44.3999993 L26.475195,47.2131148 L24.8990401,47.2131148 L24.8990401,47.078845 C24.8990401,46.1717053 24.9184988,45.2612907 24.8990401,44.3541511 C24.85817,43.5131532 25.4264796,42.7660077 26.2416906,42.5889948 C26.9053419,42.3848971 27.6253344,42.5060708 28.1875608,42.916482 C28.6011338,43.2108697 28.843919,43.6926139 28.8361842,44.2035069 C28.8361842,45.1695943 28.8361842,46.1389566 28.8361842,47.105044 L28.8361842,47.2098399 L28.8167255,47.2032901 Z" id="Path" fill="#0089B3" fill-rule="nonzero"></path>
                <path d="M22.5333333,42.4918033 L23.9898618,42.4918033 C24.0607548,42.4918033 24.1090909,42.4918033 24.1090909,42.5917605 C24.1090909,44.1199949 24.1090909,45.6482293 24.1090909,47.1764638 C24.1090909,47.1764638 24.1090909,47.1931233 24.1090909,47.2131148 L22.5558902,47.2131148 L22.5558902,42.4918033 L22.5333333,42.4918033 Z" id="Path" fill="#0089B3" fill-rule="nonzero"></path>
                <polygon id="Path" fill="#C71066" fill-rule="nonzero" points="54.3744695 34.8808677 54.3744695 36.3137391 59.5347475 36.3137391 59.5347475 39.3442623 50.8969697 39.3442623 50.8969697 27.5409836 59.5636364 27.5409836 59.5636364 30.5464315 54.3889139 30.5464315 54.3889139 31.9793029 59.1989142 31.9793029 59.1989142 34.8916142"></polygon>
                <path d="M93.4209807,38.557377 L92.5180288,38.557377 C91.597232,38.557377 90.6764347,38.557377 89.7556379,38.557377 C89.4665505,38.557377 89.3987399,38.4768955 89.3987399,38.2074574 C89.3987399,35.9714704 89.3987399,33.7354835 89.3987399,31.4994966 C89.4059299,31.3642861 89.4059299,31.2288002 89.3987399,31.0935897 C89.380738,30.7500338 89.0996869,30.4759918 88.7491856,30.460235 C88.3863687,30.4453001 88.0699424,30.6998171 88.0139757,31.0515994 C87.9973479,31.1745211 87.991378,31.2986037 87.9961308,31.4225143 L87.9961308,38.5468795 C87.8426647,38.5468795 87.7320263,38.5468795 87.617819,38.5468795 C86.5257111,38.5468795 85.4300343,38.5468795 84.3379265,38.5468795 C84.0274252,38.5468795 83.9274933,38.4768955 83.9274933,38.1584686 C83.9274933,35.9119841 83.9274933,33.6620004 83.9274933,31.4155159 C83.9274933,30.7716636 83.6990786,30.4462383 83.2351112,30.4392399 C82.7711438,30.4322415 82.5213152,30.7891596 82.5213152,31.4330119 L82.5213152,38.5223851 L78.5097818,38.5223851 C78.4933752,38.452172 78.4826352,38.3808009 78.477661,38.3089341 C78.477661,35.7230274 78.4562472,33.1371208 78.5026439,30.5512142 C78.5383337,28.7071373 80.1800644,27.0520171 82.0466409,26.8350669 C83.4995415,26.6525633 84.9521372,27.174724 85.9403984,28.2347457 C86.1438303,28.0632851 86.3472621,27.884826 86.557832,27.7203637 C87.8046551,26.6899281 89.5482868,26.4630939 91.0260464,27.1390808 C92.5038054,27.8150675 93.4467376,29.2708447 93.4424242,30.8696411 C93.4424242,33.3190791 93.4424242,35.7930114 93.4424242,38.2529469 C93.4424242,38.3404268 93.4424242,38.4279068 93.4174118,38.5538779 L93.4209807,38.557377 Z" id="Path" fill="#0089B3" fill-rule="nonzero"></path>
            </g>
        </g>
    </g>
</svg>