<?xml version="1.0" encoding="UTF-8"?>
<svg width="48px" height="48px" viewBox="0 0 48 48" version="1.1" xmlns="http://www.w3.org/2000/svg" xmlns:xlink="http://www.w3.org/1999/xlink">
    <title>Group 2</title>
    <g id="Page-1" stroke="none" stroke-width="1" fill="none" fill-rule="evenodd">
        <g id="share-2" transform="translate(-755.000000, -915.000000)">
            <g id="Group-15" transform="translate(475.000000, 118.000000)">
                <g id="Group-3-Copy" transform="translate(208.000000, 796.000000)">
                    <g id="Group-9">
                        <g id="Group-24">
                            <g id="Group-23">
                                <g id="Group-2" transform="translate(72.000000, 1.000000)">
                                    <g id="145813" fill="#327AC5" fill-rule="nonzero">
                                        <circle id="XMLID_11_" cx="23.8292389" cy="23.8292389" r="23.8292389"></circle>
                                    </g>
                                    <path d="M25.1791014,33.7755262 C25.1791014,33.7755262 25.7440571,33.7135085 26.0324819,33.4025704 C26.2979686,33.1171191 26.2894731,32.5810483 26.2894731,32.5810483 C26.2894731,32.5810483 26.2529421,30.0714554 27.4176855,29.7018979 C28.5658624,29.3378625 30.0402695,32.1273846 31.6030306,33.1999509 C32.7847651,34.0117032 33.6827474,33.8337209 33.6827474,33.8337209 L37.8612961,33.7755262 C37.8612961,33.7755262 40.0472076,33.6408713 39.0107474,31.9222164 C38.9257916,31.7816147 38.4071368,30.6508536 35.9039155,28.3273138 C33.2838801,25.8954554 33.6347474,26.2888005 36.7908536,22.0822164 C38.7129775,19.5203757 39.4814023,17.9563403 39.2414023,17.2864642 C39.0124465,16.6484465 37.5987828,16.8170837 37.5987828,16.8170837 L32.8939332,16.8463934 C32.8939332,16.8463934 32.5451899,16.7988182 32.2864996,16.9534377 C32.0337562,17.1050837 31.871066,17.4584996 31.871066,17.4584996 C31.871066,17.4584996 31.1264288,19.4409421 30.1332961,21.126889 C28.0382872,24.6844111 27.2006235,24.8721633 26.8582518,24.6512784 C26.0617916,24.1364465 26.2605881,22.5830306 26.2605881,21.4794554 C26.2605881,18.0319509 26.7834908,16.5944996 25.2423934,16.2223934 C24.7309598,16.0987828 24.3546058,16.0172253 23.046712,16.0040571 C21.3679863,15.9866412 19.9471014,16.0091545 19.1425704,16.4033492 C18.6073492,16.6654377 18.1944642,17.2495085 18.4459332,17.283066 C18.7568713,17.3246943 19.4611545,17.4729421 19.834535,17.9814023 C20.3166589,18.6372607 20.2996678,20.1103934 20.2996678,20.1103934 C20.2996678,20.1103934 20.5766235,24.1687297 19.6527297,24.6729421 C19.018535,25.018712 18.1485881,24.3127297 16.2808359,21.0852607 C15.3238093,19.4320217 14.6012607,17.6046235 14.6012607,17.6046235 C14.6012607,17.6046235 14.4619332,17.2631014 14.2134377,17.0804465 C13.9118447,16.8591368 13.4904642,16.7886235 13.4904642,16.7886235 L9.01966775,16.8179332 C9.01966775,16.8179332 8.34851731,16.8366235 8.10214563,17.1284465 C7.88295979,17.3879863 8.0847297,17.9249067 8.0847297,17.9249067 C8.0847297,17.9249067 11.5849067,26.1137917 15.5480925,30.2405173 C19.1820748,34.0240217 23.3088005,33.7755262 23.3088005,33.7755262 L25.1791014,33.7755262 Z" id="Path" fill="#FFFFFF"></path>
                                    <path d="M25.2,33.6 C25.2,33.6 25.7440571,33.7135085 26.0324819,33.4025704 C26.2979686,33.1171191 26.2894731,32.5810483 26.2894731,32.5810483 C26.2894731,32.5810483 26.2529421,30.0714554 27.4176855,29.7018979 C28.5658624,29.3378625 30.0402695,32.1273846 31.6030306,33.1999509 C32.7847651,34.0117032 33.6827474,33.8337209 33.6827474,33.8337209 L37.8612961,33.7755262 C37.8612961,33.7755262 40.0472076,33.6408713 39.0107474,31.9222164 C38.9257916,31.7816147 38.4071368,30.6508536 35.9039155,28.3273138 C33.2838801,25.8954554 33.6347474,26.2888005 36.7908536,22.0822164 C38.7129775,19.5203757 39.4814023,17.9563403 39.2414023,17.2864642 C39.0124465,16.6484465 37.5987828,16.8170837 37.5987828,16.8170837 L32.8939332,16.8463934 C32.8939332,16.8463934 32.5451899,16.7988182 32.2864996,16.9534377 C32.0337562,17.1050837 31.871066,17.4584996 31.871066,17.4584996 C31.871066,17.4584996 31.1264288,19.4409421 30.1332961,21.126889 C28.0382872,24.6844111 27.2006235,24.8721633 26.8582518,24.6512784 C26.0617916,24.1364465 26.2605881,22.5830306 26.2605881,21.4794554 C26.2605881,18.0319509 26.7834908,16.5944996 25.2423934,16.2223934 C24.9014377,16.1399863 24.8873065,21.9325219 25.2,33.6 Z" id="Path" fill="#DCE1EB"></path>
                                </g>
                            </g>
                        </g>
                    </g>
                </g>
            </g>
        </g>
    </g>
</svg>